<?xml version="1.0" encoding="UTF-8" standalone="no"?>
<!-- Created with Inkscape (http://www.inkscape.org/) -->

<svg
   xmlns:dc="http://purl.org/dc/elements/1.1/"
   xmlns:cc="http://creativecommons.org/ns#"
   xmlns:rdf="http://www.w3.org/1999/02/22-rdf-syntax-ns#"
   xmlns:svg="http://www.w3.org/2000/svg"
   xmlns="http://www.w3.org/2000/svg"
   xmlns:xlink="http://www.w3.org/1999/xlink"
   xmlns:sodipodi="http://sodipodi.sourceforge.net/DTD/sodipodi-0.dtd"
   xmlns:inkscape="http://www.inkscape.org/namespaces/inkscape"
   id="svg2"
   version="0.48.4 r9939"
   space="preserve"
   viewBox="0 0 347.50251 374.75354"
   docname="Icehockeylayout.svg"
   inkscape:version="0.91 r13725"
   sodipodi:docname="Hockey-Rink_4vs4 - Half.svg"
   width="347.5025"
   height="374.75354"
   inkscape:export-filename="C:\Users\matbgn\GitKraken\drill_drawing_tool\_assets\img\Hockey-Rink_4vs4 - Half.png"
   inkscape:export-xdpi="300.09601"
   inkscape:export-ydpi="300.09601">
  <metadata
     id="metadata43">
    <rdf:RDF>
      <cc:Work
         rdf:about="">
        <dc:format>image/svg+xml</dc:format>
        <dc:type
           rdf:resource="http://purl.org/dc/dcmitype/StillImage" />
        <dc:title></dc:title>
      </cc:Work>
    </rdf:RDF>
  </metadata>
  <sodipodi:namedview
     id="namedview36"
     bordercolor="#666666"
     inkscape:pageshadow="2"
     guidetolerance="10"
     pagecolor="#ffffff"
     gridtolerance="10"
     inkscape:zoom="1.194102"
     inkscape:window-maximized="1"
     objecttolerance="10"
     inkscape:window-height="889"
     showgrid="false"
     borderopacity="1"
     inkscape:current-layer="g4161"
     inkscape:cx="121.28051"
     inkscape:cy="128.49784"
     inkscape:window-y="-8"
     inkscape:window-x="-8"
     inkscape:window-width="1306"
     inkscape:pageopacity="0"
     fit-margin-top="0"
     fit-margin-left="0"
     fit-margin-right="0"
     fit-margin-bottom="-62" />
  <defs
     id="defs48">
    <pattern
       id="pattern3025"
       collect="always"
       xlink:href="#path14545_1_"
       patternTransform="matrix(.1651 0 0 -.167 -6677 -9802.6)" />
    <pattern
       id="pattern3021"
       collect="always"
       xlink:href="#path15433_1_"
       patternTransform="matrix(-.1651 -.0013 -.0013 .167 -8450.3 -6867.9)" />
    <pattern
       id="path14545_1_"
       xlink:href="#pattern1564"
       patternTransform="matrix(.1651 0 0 -.167 -6677 -9802.6)" />
    <pattern
       id="path15433_1_"
       xlink:href="#pattern1560"
       patternTransform="matrix(-.1651 -.0013 -.0013 .167 -8450.3 -6867.9)" />
  </defs>
  <namedview
     id="base"
     bordercolor="#666666"
     window-y="343"
     window-x="1665"
     pagecolor="#ffffff"
     zoom="0.93900245"
     borderopacity="1.0"
     cy="323.69756"
     cx="444.26333"
     pageopacity="0.0"
     window-height="539"
     pageshadow="2"
     window-width="759"
     current-layer="svg2" />
  <pattern
     id="pattern1560"
     height="450"
     width="800"
     patternUnits="userSpaceOnUse"
     y="544.964"
     x="45.958"
     viewBox="0 -450 800 450">
    <g
       id="g6">
      <polygon
         id="polygon8"
         knockout="Off"
         points="0 0 800 0 800 -450 0 -450"
         fill="none" />
    </g>
  </pattern>
  <pattern
     id="pattern1564"
     height="450"
     width="800"
     patternUnits="userSpaceOnUse"
     y="544.964"
     x="45.958"
     viewBox="0 -450 800 450">
    <g
       id="g11">
      <polygon
         id="polygon13"
         knockout="Off"
         points="0 0 800 0 800 -450 0 -450"
         fill="none" />
    </g>
  </pattern>
  <g
     id="g4161"
     transform="matrix(0,1,-1,0,347.50125,0.00224996)">
    <path
       sodipodi:nodetypes="csscccc"
       inkscape:connector-curvature="0"
       d="m 377.06159,345.499 -271.68159,0 C 48.284,345.499 2,304.149 2,253.149 L 2,94.349 C 2.002,43.347 48.284,2.001 105.38,2.001 l 0,10e-4 269.50308,0"
       connector-curvature="0"
       style="fill:#ffffff;stroke:#000000;stroke-width:4.00449991;stroke-linecap:round;stroke-linejoin:round"
       id="rect2206" />
    <path
       transform="matrix(0,1,-1,0,0,0)"
       style="fill:none;stroke:#4466bb;stroke-width:3.64073205;stroke-linecap:round;stroke-linejoin:round"
       id="path2208"
       sodipodi:type="arc"
       sodipodi:cx="173.75287"
       sodipodi:cy="-374.26175"
       sodipodi:rx="45.680904"
       sodipodi:ry="45.680054"
       sodipodi:start="0"
       sodipodi:end="3.1387275"
       sodipodi:open="true"
       d="m 219.43377,-374.26175 a 45.680904,45.680054 0 0 1 -45.61546,45.68001 45.680904,45.680054 0 0 1 -45.74616,-45.54913" />
    <line
       y2="340.20999"
       x2="375.10001"
       y1="7.2479"
       x1="373.39999"
       style="fill:none;stroke:#cc3333;stroke-width:6.58699989;stroke-linecap:square;stroke-dasharray:19.76100037, 19.76100037"
       id="path2218" />
    <path
       inkscape:connector-curvature="0"
       d="m 214.67,256.73 c 0,22.072 -18.294,39.986 -40.834,39.986 -22.54,0 -40.834,-17.914 -40.834,-39.986 0,-22.073 18.294,-39.988 40.834,-39.988 22.54,0 40.834,17.915 40.834,39.988 z m -50.054,-39.988 0,-9.773 m 17.563,-0.001 0,10.662 m 1.756,79.086 0,9.775 m -20.197,-8.886 0,8.887"
       connector-curvature="0"
       style="fill:none;stroke:#cc3333;stroke-width:3.00970006;stroke-linecap:round;stroke-linejoin:round"
       id="path25" />
    <path
       inkscape:connector-curvature="0"
       d="m 180.59,257.94 c 0,3.343 -2.681,6.056 -5.983,6.056 -3.302,0 -5.983,-2.713 -5.983,-6.056 0,-3.342 2.681,-6.055 5.983,-6.055 3.296,0 5.973,2.699 5.983,6.035"
       connector-curvature="0"
       style="fill:#cc3333"
       id="path24203" />
    <path
       inkscape:connector-curvature="0"
       d="m 214.67,81.729 c 0,22.073 -18.294,39.988 -40.834,39.988 -22.54,0 -40.834,-17.915 -40.834,-39.988 0,-22.073 18.294,-39.987 40.834,-39.987 22.54,0 40.834,17.915 40.834,39.987 z m -50.054,-39.987 0,-9.774 m 17.563,0 0,10.663 m 1.756,79.086 0,9.774 m -20.197,-8.886 0,8.886"
       connector-curvature="0"
       style="fill:none;stroke:#cc3333;stroke-width:3.00970006;stroke-linecap:round;stroke-linejoin:round"
       id="path28" />
    <path
       inkscape:connector-curvature="0"
       d="m 180.28,81.699 c 0,3.343 -2.681,6.055 -5.983,6.055 -3.304,0 -5.984,-2.712 -5.984,-6.055 0,-3.342 2.681,-6.055 5.984,-6.055 3.296,0 5.972,2.699 5.983,6.034"
       connector-curvature="0"
       style="fill:#cc3333"
       id="path24191" />
    <path
       d="m 66.484,192.92 c 0,0 -12.223,-0.115 -12.723,-0.383 -10.192,-5.446 -0.465,-14.42 -0.795,-14.735 -7.735,-7.384 -1.49,-15.509 2.1,-15.216 l 11.21,-0.127"
       connector-curvature="0"
       style="fill:url(#pattern3025);stroke:#cc3333;stroke-width:3.00970006"
       id="path14545"
       inkscape:connector-curvature="0" />
    <rect
       x="67.007004"
       y="159.89"
       width="14.027"
       height="34.125999"
       ry="0"
       style="fill:#4466bb"
       id="rect3044" />
    <path
       d="m 65.6,12.586 -0.045,322.59 m 0.691,-188.06 c 42.611,-0.1 44.025,60.907 -0.423,60.649 m 0.336,-48.495 c 1.011,0.146 15.232,-0.098 15.232,-0.098 l 0.277,35.943 -15.962,0"
       connector-curvature="0"
       style="fill:none;stroke:#cc3333;stroke-width:3.00970006;stroke-linecap:round"
       id="path39"
       inkscape:connector-curvature="0" />
    <path
       d="m 378.11,173.75 c 0.002,1.435 -0.733,2.762 -1.928,3.48 -1.195,0.718 -2.668,0.718 -3.863,0 -1.195,-0.71899 -1.931,-2.046 -1.929,-3.48 -0.002,-1.436 0.733,-2.763 1.929,-3.48 1.195,-0.719 2.668,-0.719 3.863,0 1.195,0.717 1.93,2.044 1.928,3.48 z"
       connector-curvature="0"
       style="fill:#5567b0"
       id="path29529"
       inkscape:connector-curvature="0" />
    <path
       d="m 312.83,343.92 c -0.445,-16.982 11.167,-32.822 30.357,-41.411 9.86439,-4.41484 20.93937,-6.55935 31.97976,-6.43379"
       connector-curvature="0"
       style="fill:none;stroke:#cc3333;stroke-width:2.13089991"
       id="path6578"
       inkscape:connector-curvature="0"
       sodipodi:nodetypes="ccc" />
  </g>
</svg>
