<?xml version="1.0" encoding="UTF-8" standalone="no"?>
<!-- Created with Inkscape (http://www.inkscape.org/) -->

<svg
   xmlns:dc="http://purl.org/dc/elements/1.1/"
   xmlns:cc="http://creativecommons.org/ns#"
   xmlns:rdf="http://www.w3.org/1999/02/22-rdf-syntax-ns#"
   xmlns:svg="http://www.w3.org/2000/svg"
   xmlns="http://www.w3.org/2000/svg"
   xmlns:sodipodi="http://sodipodi.sourceforge.net/DTD/sodipodi-0.dtd"
   xmlns:inkscape="http://www.inkscape.org/namespaces/inkscape"
   width="235"
   height="80"
   viewBox="0 0 235 80"
   id="svg3653"
   version="1.1"
   inkscape:version="0.91 r13725"
   sodipodi:docname="Logo_SSHA.svg">
  <defs
     id="defs3655">
    <clipPath
       clipPathUnits="userSpaceOnUse"
       id="clipPath158">
      <path
         d="m 375.24,760.82 6.6,0 0,4.92 -6.6,0 0,-4.92 z"
         id="path160"
         inkscape:connector-curvature="0" />
    </clipPath>
  </defs>
  <sodipodi:namedview
     id="base"
     pagecolor="#ffffff"
     bordercolor="#666666"
     borderopacity="1.0"
     inkscape:pageopacity="0.0"
     inkscape:pageshadow="2"
     inkscape:zoom="2.8"
     inkscape:cx="171.99535"
     inkscape:cy="74.168972"
     inkscape:document-units="px"
     inkscape:current-layer="layer1"
     showgrid="false"
     inkscape:window-width="1187"
     inkscape:window-height="697"
     inkscape:window-x="85"
     inkscape:window-y="-8"
     inkscape:window-maximized="1"
     units="px" />
  <metadata
     id="metadata3658">
    <rdf:RDF>
      <cc:Work
         rdf:about="">
        <dc:format>image/svg+xml</dc:format>
        <dc:type
           rdf:resource="http://purl.org/dc/dcmitype/StillImage" />
        <dc:title></dc:title>
      </cc:Work>
    </rdf:RDF>
  </metadata>
  <g
     inkscape:label="Calque 1"
     inkscape:groupmode="layer"
     id="layer1"
     transform="translate(0,-972.36219)">
    <g
       id="g122"
       transform="matrix(1.25,0,0,-1.25,12.777484,1028.1902)">
      <path
         d="M 0,0 -0.42,-1.02 -0.66,-1.92 -0.78,-2.7 -0.72,-3 c 0.225,-1.849 2.401,-2.125 3.9,-2.22 l 1.02,-0.06 1.32,0.06 c 2.692,0.121 4.972,0.667 7.08,2.4 l 0.6,0.54 0.48,0.6 0.48,0.66 0.18,0.42 c 0.471,0.862 0.415,1.726 -0.48,2.28 l -1.2,0.6 C 9.241,3.468 4.863,3.826 1.74,5.58 L 1.26,5.88 0.66,6.48 0.48,6.84 0.24,7.14 C -1.518,13.112 8.129,21.007 13.5,22.2 l 1.5,0.42 1.44,0.3 c 4.863,1.037 15.016,0.756 13.38,-6.66 l -0.3,-1.14 -0.48,-1.2 -0.72,-1.2 -6.9,0 0.3,0.66 0.24,0.66 0.12,0.66 0.06,0.48 c -0.119,1.369 -1.362,2.107 -2.58,2.34 l -1.02,0.12 -1.2,0.06 c -2.068,0.151 -5.739,-0.833 -7.26,-2.34 L 9.66,15 9.3,14.58 8.94,14.1 8.64,13.68 C 8.093,12.866 7.9,11.761 8.7,11.04 l 0.6,-0.24 0.72,-0.36 c 3.353,-1.022 8.104,-1.58 11.1,-3.36 l 0.54,-0.3 0.36,-0.36 0.3,-0.36 0.3,-0.6 0.3,-0.66 0.06,-0.72 C 23.254,2.069 21.08,-1.189 19.92,-2.7 L 18,-4.62 C 14.679,-7.573 11.68,-8.949 7.44,-10.14 l -1.5,-0.3 -1.56,-0.24 -1.62,-0.12 c -4.8,-0.415 -13.067,0.646 -11.28,7.32 l 0.36,1.14 0.48,1.14 0.72,1.26"
         style="fill:#000000;fill-opacity:1;fill-rule:evenodd;stroke:none"
         id="path124"
         inkscape:connector-curvature="0" />
    </g>
    <g
       id="g126"
       transform="matrix(1.25,0,0,-1.25,53.127484,1028.1902)">
      <path
         d="m 0,0 -0.42,-1.08 -0.3,-0.84 -0.12,-0.78 0,-0.3 c 0.286,-1.39 1.756,-2.081 3.06,-2.16 l 0.96,-0.12 1.02,0 c 2.675,-0.036 5.478,0.402 7.74,1.92 l 0.6,0.48 0.6,0.6 0.54,0.6 0.42,0.6 0.18,0.42 0.24,0.36 0.06,0.36 0,0.66 L 14.52,0.96 14.28,1.2 14.1,1.44 13.5,1.86 12.6,2.28 C 9.749,3.365 4.294,3.879 1.74,5.58 L 1.26,5.88 0.84,6.18 0.6,6.48 0.42,6.84 0.24,7.14 0.12,7.5 c -0.65,1.997 0.588,3.998 1.5,5.7 l 0.66,1.08 0.84,1.02 c 2.053,2.59 5.878,5.319 9,6.36 l 1.38,0.54 1.44,0.42 1.5,0.3 c 4.926,1.002 14.953,0.691 13.38,-6.72 l -0.36,-1.08 -0.48,-1.2 -0.66,-1.2 -6.96,0 0.6,1.32 0.12,0.6 0,0.54 c 0.01,1.459 -1.406,1.914 -2.52,2.34 l -1.08,0.12 -1.2,0.06 c -2.111,0.11 -5.588,-0.838 -7.2,-2.34 L 9.6,15 9.24,14.58 8.94,14.1 8.64,13.68 C 7.973,12.72 7.753,11.875 8.7,11.04 l 0.48,-0.3 0.84,-0.3 c 3.236,-1.069 8.018,-1.699 11.1,-3.36 l 0.42,-0.3 0.48,-0.42 0.3,-0.3 0.3,-0.6 0.24,-0.72 C 23.184,-3.389 11.594,-10.283 4.38,-10.68 L 2.76,-10.8 1.08,-10.86 c -4.655,-0.084 -11.255,1.304 -9.66,7.38 l 0.36,1.14 0.54,1.08 0.66,1.26"
         style="fill:#000000;fill-opacity:1;fill-rule:evenodd;stroke:none"
         id="path128"
         inkscape:connector-curvature="0" />
    </g>
    <g
       id="g130"
       transform="matrix(1.25,0,0,-1.25,79.152483,1040.8652)">
      <path
         d="m 0,0 19.68,32.52 7.26,0 -7.5,-12.36 13.5,0 7.5,12.36 7.2,-0.06 L 27.96,0 l -7.2,0 8.76,14.52 -13.5,0 L 7.2,0"
         style="fill:#000000;fill-opacity:1;fill-rule:evenodd;stroke:none"
         id="path132"
         inkscape:connector-curvature="0" />
    </g>
    <g
       id="g134"
       transform="matrix(1.25,0,0,-1.25,119.87749,1040.8652)">
      <path
         d="m 0,0 7.56,0 6.36,6.66 12.84,0 -1.8,-6.66 7.92,0 7.44,32.46 -8.22,0 L 0,0 Z m 31.62,25.08 -3.36,-12.78 -8.88,0 12.24,12.78"
         style="fill:#000000;fill-opacity:1;fill-rule:evenodd;stroke:none"
         id="path136"
         inkscape:connector-curvature="0" />
    </g>
    <g
       id="g138"
       transform="matrix(1.25,0,0,-1.25,161.57749,996.76519)">
      <path
         d="m 0,0 10.26,17.76 32.76,0 -10.5,-17.82 24.84,-0.06 -14.04,-23.58 -21.96,-0.06 0.18,0.78 c 0.338,2.382 -1.176,3.802 -3.12,4.8 l -0.18,0.06 20.82,0 7.08,12.3 -24.84,0 10.26,17.88 -16.62,0 L 7.74,-0.06 0,0 Z"
         style="fill:none;stroke:#000000;stroke-width:1.18400002;stroke-linecap:round;stroke-linejoin:round;stroke-miterlimit:10;stroke-dasharray:none;stroke-opacity:1"
         id="path140"
         inkscape:connector-curvature="0" />
      <g
         id="g142"
         transform="translate(-85.98,-42.84)">
        <path
           d="m 0,0 89.1,0 1.38,0.06 1.08,0.06 0.78,0.18 0.66,0.18 0.48,0.24 0.42,0.3 0.48,0.36 0.6,0.72 0.9,1.2 1.14,1.56 1.32,1.98 1.5,2.28 1.56,2.64 1.56,2.88 c 1.911,3.789 4.6,6.393 -0.3,9 l -0.78,0.36 -0.54,0.18 -0.42,0.12 -0.48,0 C 97.131,23.976 96.621,20.037 95.1,17.82 L 93.96,15.78 92.64,13.44 C 89.463,9.118 88.728,4.235 82.8,3.78 L 81.96,3.72 81.06,3.66 0,3.66 0,0 Z"
           style="fill:none;stroke:#000000;stroke-width:1.18400002;stroke-linecap:round;stroke-linejoin:round;stroke-miterlimit:10;stroke-dasharray:none;stroke-opacity:1"
           id="path144"
           inkscape:connector-curvature="0" />
        <g
           id="g146"
           transform="translate(-1.62,0)">
          <path
             d="m 0,0 -21.06,0 0,3.66 21.12,0 L 0,0 Z"
             style="fill:none;stroke:#000000;stroke-width:1.18400002;stroke-linecap:round;stroke-linejoin:round;stroke-miterlimit:10;stroke-dasharray:none;stroke-opacity:1"
             id="path148"
             inkscape:connector-curvature="0" />
          <g
             id="g150"
             transform="translate(-22.68,0)">
            <path
               d="m 0,0 -10.56,0 0,3.66 L 0,3.66 0,0 Z"
               style="fill:none;stroke:#000000;stroke-width:1.18400002;stroke-linecap:round;stroke-linejoin:round;stroke-miterlimit:10;stroke-dasharray:none;stroke-opacity:1"
               id="path152"
               inkscape:connector-curvature="0" />
          </g>
        </g>
      </g>
    </g>
    <g
       transform="matrix(1.25,0,0,-1.25,-467.97252,2002.0902)"
       id="g154">
      <g
         id="g156"
         clip-path="url(#clipPath158)">
        <path
           d="m 381.12,761.42 -5.34,0 0,3.66 5.34,0 0,-3.66 z"
           style="fill:none;stroke:#000000;stroke-width:1.18400002;stroke-linecap:round;stroke-linejoin:round;stroke-miterlimit:10;stroke-dasharray:none;stroke-opacity:1"
           id="path162"
           inkscape:connector-curvature="0" />
      </g>
    </g>
    <g
       id="g164"
       transform="matrix(1.25,0,0,-1.25,161.57749,996.76519)">
      <path
         d="m 0,0 10.26,17.76 32.76,0 -10.5,-17.82 24.84,-0.06 -14.04,-23.58 -21.96,-0.06 0.18,0.78 c 0.338,2.382 -1.176,3.802 -3.12,4.8 l -0.18,0.06 20.82,0 7.08,12.3 -24.84,0 10.26,17.88 -16.62,0 L 7.74,-0.06 0,0"
         style="fill:#c9002b;fill-opacity:1;fill-rule:evenodd;stroke:none"
         id="path166"
         inkscape:connector-curvature="0" />
    </g>
    <g
       id="g168"
       transform="matrix(1.25,0,0,-1.25,54.102484,1050.3152)">
      <path
         d="m 0,0 89.1,0 1.38,0.06 1.08,0.06 0.78,0.18 0.66,0.18 0.48,0.24 0.42,0.3 0.48,0.36 0.6,0.72 0.9,1.2 1.14,1.56 1.32,1.98 1.5,2.28 1.56,2.64 1.56,2.88 c 1.911,3.789 4.6,6.393 -0.3,9 l -0.78,0.36 -0.54,0.18 -0.42,0.12 -0.48,0 C 97.131,23.976 96.621,20.037 95.1,17.82 L 93.96,15.78 92.64,13.44 C 89.463,9.118 88.728,4.235 82.8,3.78 L 81.96,3.72 81.06,3.66 0,3.66 0,0"
         style="fill:#c9002b;fill-opacity:1;fill-rule:evenodd;stroke:none"
         id="path170"
         inkscape:connector-curvature="0" />
    </g>
    <g
       id="g172"
       transform="matrix(1.25,0,0,-1.25,52.077484,1050.3152)">
      <path
         d="m 0,0 -21.06,0 0,3.66 21.12,0 L 0,0"
         style="fill:#c9002b;fill-opacity:1;fill-rule:evenodd;stroke:none"
         id="path174"
         inkscape:connector-curvature="0" />
    </g>
    <path
       d="m 23.727484,1050.3152 -13.2,0 0,-4.575 13.2,0 0,4.575 z"
       style="fill:#c9002b;fill-opacity:1;fill-rule:evenodd;stroke:none"
       id="path176"
       inkscape:connector-curvature="0" />
    <path
       d="m 8.4274848,1050.3152 -6.675,0 0,-4.575 6.675,0 0,4.575 z"
       style="fill:#c9002b;fill-opacity:1;fill-rule:evenodd;stroke:none"
       id="path178"
       inkscape:connector-curvature="0" />
  </g>
</svg>
